<svg xmlns="http://www.w3.org/2000/svg" width="19.095" height="19.095" viewBox="0 0 19.095 19.095"><defs><style>.a{fill:#b1b1b1;}</style></defs><path class="a" d="M563.243-2477.142a9.49,9.49,0,0,0-6.751-2.8,9.486,9.486,0,0,0-6.751,2.8,9.492,9.492,0,0,0-2.8,6.751,9.486,9.486,0,0,0,2.8,6.751,9.486,9.486,0,0,0,6.751,2.8,9.49,9.49,0,0,0,6.751-2.8,9.485,9.485,0,0,0,2.8-6.751,9.492,9.492,0,0,0-2.8-6.751Zm-6.751,6.155a2.688,2.688,0,0,1,2.685,2.685,2.689,2.689,0,0,1-1.952,2.583.186.186,0,0,0-.137.178v.5a.61.61,0,0,1-.568.615.6.6,0,0,1-.625-.6v-.521a.186.186,0,0,0-.137-.178,2.689,2.689,0,0,1-1.951-2.566.606.606,0,0,1,.579-.614.6.6,0,0,1,.614.6,1.494,1.494,0,0,0,1.6,1.489,1.5,1.5,0,0,0,1.38-1.382,1.493,1.493,0,0,0-1.487-1.6,2.687,2.687,0,0,1-2.685-2.685,2.688,2.688,0,0,1,1.95-2.582.186.186,0,0,0,.138-.18v-.5a.608.608,0,0,1,.568-.613.6.6,0,0,1,.625.6v.519a.188.188,0,0,0,.137.18,2.688,2.688,0,0,1,1.952,2.566.606.606,0,0,1-.579.613.6.6,0,0,1-.614-.6,1.493,1.493,0,0,0-1.6-1.488,1.5,1.5,0,0,0-1.382,1.38,1.5,1.5,0,0,0,1.489,1.6Zm0,0" transform="translate(-546.944 2479.938)"/></svg>