<svg xmlns="http://www.w3.org/2000/svg" width="225.93" height="30.601" viewBox="0 0 225.93 30.601"><defs><style>.a{fill:#989898;}</style></defs><g transform="translate(5.208 12.174)"><path class="a" d="M444.242-2626.831v6.509a1.614,1.614,0,0,0,1.613,1.613h15.758a1.613,1.613,0,0,0,1.613-1.613v-8.155a.713.713,0,0,0-1.1-.6l-3.162,2.063a2.016,2.016,0,0,1-2.282-.055l-6.131-4.434a.715.715,0,0,0-.827-.006l-4.792,3.355A1.61,1.61,0,0,0,444.242-2626.831Z" transform="translate(-444.242 2631.635)"/></g><g transform="translate(16.882 6.117)"><ellipse class="a" cx="2.712" cy="2.712" rx="2.712" ry="2.712"/></g><path class="a" d="M465.657-2611.191h-22.47a3.293,3.293,0,0,1-3.289-3.288V-2638.5a3.293,3.293,0,0,1,3.289-3.288h22.47a3.292,3.292,0,0,1,3.288,3.288v24.025A3.293,3.293,0,0,1,465.657-2611.191Zm-22.47-28.2a.893.893,0,0,0-.892.891v24.025a.892.892,0,0,0,.892.891h22.47a.892.892,0,0,0,.891-.891V-2638.5a.893.893,0,0,0-.891-.891Z" transform="translate(-439.897 2641.792)"/><g transform="translate(36.499 7.71)"><path class="a" d="M470.346-2621.782v-13.375h2.626v11.074H477.8v2.3Z" transform="translate(-470.346 2635.401)"/><path class="a" d="M484.285-2621.483a6.489,6.489,0,0,1-2.626-.535,6.688,6.688,0,0,1-2.148-1.487,7,7,0,0,1-1.447-2.213,6.978,6.978,0,0,1-.523-2.7,6.979,6.979,0,0,1,.523-2.7,6.993,6.993,0,0,1,1.447-2.213,6.7,6.7,0,0,1,2.148-1.488,6.482,6.482,0,0,1,2.626-.536,6.482,6.482,0,0,1,2.626.536,6.7,6.7,0,0,1,2.148,1.488,6.993,6.993,0,0,1,1.447,2.213,6.98,6.98,0,0,1,.523,2.7,6.979,6.979,0,0,1-.523,2.7,7,7,0,0,1-1.447,2.213,6.687,6.687,0,0,1-2.148,1.487A6.489,6.489,0,0,1,484.285-2621.483Zm-.008-2.528a3.743,3.743,0,0,0,1.573-.325,3.676,3.676,0,0,0,1.241-.916,4.243,4.243,0,0,0,.819-1.4,5.175,5.175,0,0,0,.291-1.77,5.19,5.19,0,0,0-.291-1.772,4.256,4.256,0,0,0-.819-1.4,3.682,3.682,0,0,0-1.241-.916,3.751,3.751,0,0,0-1.573-.324,3.733,3.733,0,0,0-1.56.324,3.673,3.673,0,0,0-1.244.916,4.207,4.207,0,0,0-.815,1.4,5.247,5.247,0,0,0-.288,1.772,5.232,5.232,0,0,0,.288,1.77,4.2,4.2,0,0,0,.815,1.4,3.667,3.667,0,0,0,1.244.916A3.726,3.726,0,0,0,484.276-2624.011Z" transform="translate(-468.917 2635.36)"/><path class="a" d="M496.77-2621.483a6.281,6.281,0,0,1-2.57-.527,6.379,6.379,0,0,1-2.083-1.471,6.882,6.882,0,0,1-1.394-2.208,7.359,7.359,0,0,1-.5-2.74,7.524,7.524,0,0,1,.47-2.663,6.731,6.731,0,0,1,1.353-2.213,6.286,6.286,0,0,1,2.132-1.508,6.9,6.9,0,0,1,2.8-.548,8.179,8.179,0,0,1,1.763.2,8.4,8.4,0,0,1,1.706.571,6.718,6.718,0,0,1,1.475.921l-1.232,2.034a4.9,4.9,0,0,0-1.706-1.016,5.782,5.782,0,0,0-1.974-.361,4.021,4.021,0,0,0-1.69.335,3.448,3.448,0,0,0-1.236.945,4.191,4.191,0,0,0-.762,1.423,5.818,5.818,0,0,0-.259,1.771,5.831,5.831,0,0,0,.291,1.9,4.489,4.489,0,0,0,.815,1.467,3.631,3.631,0,0,0,1.224.948,3.477,3.477,0,0,0,1.512.332,3.683,3.683,0,0,0,1.253-.215,3.487,3.487,0,0,0,1.074-.6,2.959,2.959,0,0,0,.746-.916,2.447,2.447,0,0,0,.276-1.15v-.2h-3.51v-2.036h6.184v2.027a4.9,4.9,0,0,1-.506,2.233,5.426,5.426,0,0,1-1.382,1.743,6.532,6.532,0,0,1-1.978,1.135A6.648,6.648,0,0,1,496.77-2621.483Z" transform="translate(-466.398 2635.36)"/><path class="a" d="M508.96-2621.483a6.493,6.493,0,0,1-2.626-.535,6.7,6.7,0,0,1-2.148-1.487,7,7,0,0,1-1.447-2.213,7,7,0,0,1-.523-2.7,7,7,0,0,1,.523-2.7,6.993,6.993,0,0,1,1.447-2.213,6.713,6.713,0,0,1,2.148-1.488,6.486,6.486,0,0,1,2.626-.536,6.478,6.478,0,0,1,2.626.536,6.687,6.687,0,0,1,2.148,1.488,7,7,0,0,1,1.448,2.213,7,7,0,0,1,.523,2.7,7,7,0,0,1-.523,2.7,7,7,0,0,1-1.448,2.213,6.675,6.675,0,0,1-2.148,1.487A6.485,6.485,0,0,1,508.96-2621.483Zm-.007-2.528a3.734,3.734,0,0,0,1.571-.325,3.676,3.676,0,0,0,1.241-.916,4.242,4.242,0,0,0,.819-1.4,5.174,5.174,0,0,0,.292-1.77,5.189,5.189,0,0,0-.292-1.772,4.255,4.255,0,0,0-.819-1.4,3.683,3.683,0,0,0-1.241-.916,3.741,3.741,0,0,0-1.571-.324,3.739,3.739,0,0,0-1.561.324,3.673,3.673,0,0,0-1.244.916,4.208,4.208,0,0,0-.815,1.4,5.249,5.249,0,0,0-.288,1.772,5.233,5.233,0,0,0,.288,1.77,4.2,4.2,0,0,0,.815,1.4,3.667,3.667,0,0,0,1.244.916A3.732,3.732,0,0,0,508.953-2624.011Z" transform="translate(-464.014 2635.36)"/><path class="a" d="M519.338-2621.782v-13.375h4.555a5.6,5.6,0,0,1,2.318.454,3.645,3.645,0,0,1,1.6,1.35,4.015,4.015,0,0,1,.583,2.233,4.222,4.222,0,0,1-.583,2.269,3.826,3.826,0,0,1-1.6,1.439,5.18,5.18,0,0,1-2.318.5h-1.929v5.131Zm2.626-7.23h1.118a3.825,3.825,0,0,0,1.269-.2,2.022,2.022,0,0,0,.936-.649,1.828,1.828,0,0,0,.356-1.176,1.82,1.82,0,0,0-.356-1.178,2.023,2.023,0,0,0-.936-.642,3.916,3.916,0,0,0-1.269-.2h-1.118Z" transform="translate(-460.612 2635.401)"/><path class="a" d="M528.913-2621.782v-13.375h2.626v11.074h4.832v2.3Z" transform="translate(-458.71 2635.401)"/><path class="a" d="M535.73-2621.782l5.374-13.375h2.44l5.365,13.375h-2.829l-1.135-3.047h-5.253l-1.134,3.047Zm4.863-5.35h3.462l-1.736-4.483Z" transform="translate(-457.356 2635.401)"/><path class="a" d="M554.622-2621.483a7.548,7.548,0,0,1-2.844-.535,7.428,7.428,0,0,1-2.343-1.487,6.9,6.9,0,0,1-1.58-2.208,6.474,6.474,0,0,1-.568-2.7,6.485,6.485,0,0,1,.572-2.711,6.983,6.983,0,0,1,1.581-2.213,7.4,7.4,0,0,1,2.334-1.488,7.492,7.492,0,0,1,2.834-.536,7.819,7.819,0,0,1,2.346.349,6.738,6.738,0,0,1,1.91.916l-1.135,2.229a4.043,4.043,0,0,0-1.321-.672,5.44,5.44,0,0,0-1.629-.243,4.994,4.994,0,0,0-1.845.333,4.54,4.54,0,0,0-1.474.924,4.191,4.191,0,0,0-.977,1.386,4.228,4.228,0,0,0-.349,1.719,4.218,4.218,0,0,0,.349,1.718,4.2,4.2,0,0,0,.977,1.387,4.549,4.549,0,0,0,1.474.924,5,5,0,0,0,1.845.332,5.409,5.409,0,0,0,1.629-.243,4.048,4.048,0,0,0,1.321-.673l1.135,2.23a6.637,6.637,0,0,1-1.872.907A7.706,7.706,0,0,1,554.622-2621.483Z" transform="translate(-455.06 2635.36)"/><path class="a" d="M558.728-2621.782v-13.375h7.441v2.3h-4.815v3.218h4.621v2.3h-4.621v3.251h4.815v2.3Z" transform="translate(-452.786 2635.401)"/><path class="a" d="M567.614-2621.782v-13.375h2.626v5.52h5v-5.52h2.618v13.375h-2.618v-5.552h-5v5.552Z" transform="translate(-451.021 2635.401)"/><path class="a" d="M585.144-2621.483a6.489,6.489,0,0,1-2.626-.535,6.687,6.687,0,0,1-2.148-1.487,6.994,6.994,0,0,1-1.447-2.213,6.978,6.978,0,0,1-.523-2.7,6.979,6.979,0,0,1,.523-2.7,6.992,6.992,0,0,1,1.447-2.213,6.7,6.7,0,0,1,2.148-1.488,6.481,6.481,0,0,1,2.626-.536,6.481,6.481,0,0,1,2.626.536,6.7,6.7,0,0,1,2.148,1.488,6.993,6.993,0,0,1,1.447,2.213,6.982,6.982,0,0,1,.523,2.7,6.981,6.981,0,0,1-.523,2.7,6.994,6.994,0,0,1-1.447,2.213,6.685,6.685,0,0,1-2.148,1.487A6.489,6.489,0,0,1,585.144-2621.483Zm-.008-2.528a3.744,3.744,0,0,0,1.573-.325,3.677,3.677,0,0,0,1.241-.916,4.245,4.245,0,0,0,.819-1.4,5.177,5.177,0,0,0,.291-1.77,5.192,5.192,0,0,0-.291-1.772,4.258,4.258,0,0,0-.819-1.4,3.684,3.684,0,0,0-1.241-.916,3.751,3.751,0,0,0-1.573-.324,3.729,3.729,0,0,0-1.559.324,3.676,3.676,0,0,0-1.245.916,4.226,4.226,0,0,0-.814,1.4,5.249,5.249,0,0,0-.288,1.772,5.233,5.233,0,0,0,.288,1.77,4.214,4.214,0,0,0,.814,1.4,3.669,3.669,0,0,0,1.245.916A3.722,3.722,0,0,0,585.135-2624.011Z" transform="translate(-448.878 2635.36)"/><path class="a" d="M591.877-2621.782v-13.375H594.5v11.074h4.831v2.3Z" transform="translate(-446.201 2635.401)"/><path class="a" d="M599.883-2621.782v-13.375h3.673a6.819,6.819,0,0,1,2.65.511,6.6,6.6,0,0,1,2.144,1.428,6.642,6.642,0,0,1,1.435,2.131,6.675,6.675,0,0,1,.514,2.626,6.7,6.7,0,0,1-.511,2.63,6.524,6.524,0,0,1-1.431,2.124,6.563,6.563,0,0,1-2.148,1.418,6.879,6.879,0,0,1-2.654.507Zm2.626-2.351h.754a4.286,4.286,0,0,0,1.678-.324,4.035,4.035,0,0,0,1.338-.908,4.188,4.188,0,0,0,.883-1.374,4.618,4.618,0,0,0,.316-1.731,4.594,4.594,0,0,0-.316-1.722,4.236,4.236,0,0,0-.883-1.378,4,4,0,0,0-1.338-.912,4.282,4.282,0,0,0-1.678-.325h-.754Z" transform="translate(-444.61 2635.401)"/><path class="a" d="M610.784-2621.782v-13.375h7.441v2.3H613.41v3.218h4.621v2.3H613.41v3.251h4.815v2.3Z" transform="translate(-442.444 2635.401)"/><path class="a" d="M619.67-2621.782v-13.375h4.555a5.462,5.462,0,0,1,2.379.484,3.622,3.622,0,0,1,1.564,1.385,4.079,4.079,0,0,1,.555,2.177,4.447,4.447,0,0,1-.356,1.811,3.684,3.684,0,0,1-1.021,1.358,4.341,4.341,0,0,1-1.613.819l4.378,5.341h-3.332l-3.859-5.042H622.3v5.042Zm2.626-7.23h1.118a3.607,3.607,0,0,0,1.386-.235,1.873,1.873,0,0,0,.871-.692,1.945,1.945,0,0,0,.3-1.1,1.785,1.785,0,0,0-.669-1.495,3.007,3.007,0,0,0-1.893-.523H622.3Z" transform="translate(-440.679 2635.401)"/></g></svg>