<svg width="56" height="64" viewBox="0 0 56 64" fill="none" xmlns="http://www.w3.org/2000/svg">
<path d="M43.5 50C48.7 53.6 50.3333 57.5 50.5 59H1C1.83333 56.6667 4.5 51.5 8.5 49.5C12.5 47.5 17.1667 46.6667 19 46.5C19.1667 48.3333 20.6 52 25 52C29.4 52 31.1667 48.6667 31.5 47C33.3333 46.5 38.3 46.4 43.5 50Z" fill="#42BBC7" stroke="#414EC5" stroke-linejoin="round"/>
<path d="M19.5 42.5V46.5M31.5 42.5V46.5" stroke="#414EC5" stroke-linecap="round" stroke-linejoin="round"/>
<path d="M39.2478 29.4756L39.1719 28.9814C38.9279 29.0189 38.7478 29.2288 38.7478 29.4756H39.2478ZM43.2393 26.7927L43.7263 26.9059L43.2393 26.7927ZM37.7723 23.9617C37.6906 24.2255 37.8381 24.5056 38.1019 24.5873C38.3656 24.6691 38.6457 24.5215 38.7275 24.2578L37.7723 23.9617ZM12.8041 24.6098C13.0802 24.6098 13.3041 24.3859 13.3041 24.1098C13.3041 23.8336 13.0802 23.6098 12.8041 23.6098V24.6098ZM11.8062 29.4756L12.3059 29.459C12.297 29.1895 12.0759 28.9756 11.8062 28.9756V29.4756ZM39.3237 29.9698C39.9501 29.8736 40.9053 29.6172 41.7682 29.1508C42.6193 28.6908 43.4786 27.9714 43.7263 26.9059L42.7523 26.6795C42.6008 27.3311 42.0464 27.8637 41.2927 28.2711C40.5506 28.6722 39.7097 28.8988 39.1719 28.9814L39.3237 29.9698ZM43.7263 26.9059C43.9778 25.8241 44.1337 24.6359 43.8416 23.6934C43.6902 23.2049 43.4135 22.7664 42.9604 22.4563C42.5119 22.1493 41.9371 22 41.2435 22V23C41.7973 23 42.1581 23.119 42.3956 23.2815C42.6285 23.4409 42.7884 23.6732 42.8864 23.9895C43.0933 24.6568 42.9997 25.6149 42.7523 26.6795L43.7263 26.9059ZM41.2435 22C39.0484 22 38.0092 23.1976 37.7723 23.9617L38.7275 24.2578C38.8233 23.9488 39.4472 23 41.2435 23V22ZM12.8041 23.6098C12.5689 23.6098 12.2921 23.5013 11.9375 23.2985C11.7639 23.1991 11.5953 23.0918 11.409 22.9768C11.2294 22.866 11.0361 22.7499 10.8408 22.6545C10.4652 22.4708 9.96625 22.3046 9.45561 22.5159C8.95488 22.723 8.60811 23.2252 8.34393 23.9355L9.2812 24.2841C9.51595 23.6529 9.7305 23.4843 9.83784 23.4399C9.93529 23.3996 10.0912 23.4011 10.4016 23.5529C10.5493 23.6251 10.7068 23.7186 10.8839 23.8279C11.0543 23.933 11.2482 24.0562 11.441 24.1665C11.8192 24.3828 12.2908 24.6098 12.8041 24.6098V23.6098ZM8.34393 23.9355C7.79771 25.4041 7.92526 26.8992 8.56302 28.0424C9.20423 29.1917 10.361 29.9756 11.8062 29.9756V28.9756C10.7567 28.9756 9.91771 28.4181 9.43631 27.5552C8.95146 26.6861 8.82955 25.4984 9.2812 24.2841L8.34393 23.9355ZM11.3065 29.4922C11.3922 32.0724 12.2122 35.563 14.4164 38.4212C16.6375 41.3015 20.236 43.5 25.7765 43.5V42.5C20.5399 42.5 17.2363 40.4404 15.2082 37.8105C13.1631 35.1585 12.3865 31.8869 12.3059 29.459L11.3065 29.4922ZM25.7765 43.5C31.3177 43.5 34.838 41.3003 36.9567 38.4116C39.0571 35.5479 39.7478 32.0537 39.7478 29.4756H38.7478C38.7478 31.9057 38.0914 35.1737 36.1503 37.8201C34.2276 40.4416 31.0123 42.5 25.7765 42.5V43.5Z" fill="#414EC5"/>
<path d="M41.0001 11.0002C42.2001 13.8002 41.5001 19.5002 41.0001 22.0002L38 23.5L37.5 20.5C36.3333 20.1667 33.8 19 33 17C32.2 15 32 12.8333 32 12C30.3333 13.6667 25.9 17.1 21.5 17.5C17.1 17.9 14.6667 16 14 15L13 23.5L10.5001 23.0001C10.0001 22.3334 8.44779 17.313 9.5 11.0001C10.5001 4.99992 16.4236 0.999978 23.0001 1C32.5 1.00003 39.5001 7.50018 41.0001 11.0002Z" fill="#DEE0EF" stroke="#414EC5" stroke-linejoin="round"/>
<rect x="27.5" y="54.5" width="28" height="9" fill="#DEE0EF" stroke="#414EC5" stroke-linejoin="round"/>
<circle cx="33" cy="59" r="2" fill="#414EC5"/>
<circle cx="41" cy="59" r="2" fill="#414EC5"/>
<circle cx="49" cy="59" r="2" fill="#414EC5"/>
</svg>
