<svg width="194" height="34" viewBox="0 0 194 34" fill="none" xmlns="http://www.w3.org/2000/svg">
<path d="M32.562 18.998V10.443C32.562 10.2226 32.6496 10.0112 32.8054 9.85539C32.9612 9.69955 33.1726 9.612 33.393 9.612H37.23C37.4504 9.612 37.6618 9.69955 37.8176 9.85539C37.9735 10.0112 38.061 10.2226 38.061 10.443V18.998C38.061 21.858 39.454 23.068 41.507 23.068C43.56 23.068 44.954 21.858 44.954 18.998V10.443C44.954 10.3339 44.9755 10.2258 45.0173 10.125C45.059 10.0242 45.1202 9.93256 45.1974 9.85539C45.2746 9.77823 45.3662 9.71702 45.467 9.67525C45.5678 9.63349 45.6759 9.612 45.785 9.612H49.623C49.8434 9.612 50.0548 9.69955 50.2106 9.85539C50.3665 10.0112 50.454 10.2226 50.454 10.443V18.998C50.454 25.084 46.861 28.198 41.507 28.198C36.153 28.198 32.561 25.118 32.561 18.998" fill="white"/>
<path d="M54.188 3.19996C54.229 2.37999 54.5837 1.60715 55.1785 1.04131C55.7734 0.475468 56.563 0.159912 57.384 0.159912C58.205 0.159912 58.9946 0.475468 59.5895 1.04131C60.1843 1.60715 60.539 2.37999 60.58 3.19996C60.6017 3.63312 60.5351 4.06616 60.3842 4.47279C60.2334 4.87941 60.0015 5.25114 59.7026 5.56538C59.4037 5.87962 59.044 6.12982 58.6454 6.30079C58.2469 6.47175 57.8177 6.55991 57.384 6.55991C56.9503 6.55991 56.5211 6.47175 56.1225 6.30079C55.724 6.12982 55.3643 5.87962 55.0654 5.56538C54.7665 5.25114 54.5346 4.87941 54.3837 4.47279C54.2329 4.06616 54.1663 3.63312 54.188 3.19996Z" fill="#D88B31"/>
<path d="M55.444 9.612H59.321C59.5361 9.612 59.7424 9.69744 59.8945 9.84954C60.0466 10.0016 60.132 10.2079 60.132 10.423V26.901C60.1317 27.1189 60.045 27.3279 59.8909 27.4819C59.7368 27.636 59.5279 27.7227 59.31 27.723H55.453C55.2351 27.7227 55.0262 27.636 54.8721 27.4819C54.718 27.3279 54.6313 27.1189 54.631 26.901V10.423C54.631 10.2079 54.7165 10.0016 54.8685 9.84954C55.0206 9.69744 55.2269 9.612 55.442 9.612" fill="white"/>
<path d="M64.118 22.905L72.966 14.378H65.224C65.0118 14.378 64.8083 14.2937 64.6583 14.1437C64.5083 13.9937 64.424 13.7902 64.424 13.578V10.412C64.424 10.1998 64.5083 9.99634 64.6583 9.84631C64.8083 9.69628 65.0118 9.612 65.224 9.612H79.389C79.6012 9.612 79.8047 9.69628 79.9547 9.84631C80.1047 9.99634 80.189 10.1998 80.189 10.412V13.853C80.1891 13.9607 80.1675 14.0673 80.1254 14.1665C80.0833 14.2656 80.0216 14.3553 79.944 14.43L71.096 22.953H79.73C79.9479 22.9533 80.1568 23.04 80.3109 23.194C80.465 23.3481 80.5517 23.5571 80.552 23.775V26.896C80.5517 27.1139 80.465 27.3228 80.3109 27.4769C80.1568 27.631 79.9479 27.7177 79.73 27.718H64.673C64.4608 27.718 64.2573 27.6337 64.1073 27.4837C63.9573 27.3337 63.873 27.1302 63.873 26.918V23.481C63.873 23.3735 63.8947 23.267 63.9368 23.168C63.9789 23.0691 64.0405 22.9796 64.118 22.905Z" fill="white"/>
<path d="M85.416 3.74598H101.104C101.333 3.74598 101.553 3.83701 101.715 3.99904C101.877 4.16107 101.968 4.38083 101.968 4.60998V8.38198C101.968 8.61113 101.877 8.83089 101.715 8.99292C101.553 9.15495 101.333 9.24598 101.104 9.24598H90.492V12.986H98.977C99.2062 12.986 99.4259 13.077 99.5879 13.239C99.75 13.4011 99.841 13.6208 99.841 13.85V17.256C99.841 17.4851 99.75 17.7049 99.5879 17.8669C99.4259 18.029 99.2062 18.12 98.977 18.12H90.492V26.862C90.492 27.0911 90.401 27.3109 90.2389 27.4729C90.0769 27.635 89.8572 27.726 89.628 27.726H85.416C85.1869 27.726 84.9671 27.635 84.8051 27.4729C84.643 27.3109 84.552 27.0911 84.552 26.862V4.60698C84.552 4.37783 84.643 4.15807 84.8051 3.99604C84.9671 3.83401 85.1869 3.74298 85.416 3.74298" fill="white"/>
<path d="M103.544 18.668C103.544 13.168 107.577 9.13501 113.296 9.13501C119.015 9.13501 123.049 13.168 123.049 18.668C123.049 24.168 119.016 28.201 113.296 28.201C107.576 28.201 103.544 24.168 103.544 18.668ZM117.476 18.668C117.505 18.1011 117.419 17.5342 117.222 17.0018C117.025 16.4694 116.722 15.9827 116.331 15.5711C115.94 15.1596 115.469 14.8319 114.947 14.6079C114.426 14.384 113.864 14.2685 113.297 14.2685C112.729 14.2685 112.167 14.384 111.646 14.6079C111.124 14.8319 110.653 15.1596 110.262 15.5711C109.871 15.9827 109.568 16.4694 109.371 17.0018C109.174 17.5342 109.088 18.1011 109.117 18.668C109.088 19.2349 109.174 19.8018 109.371 20.3342C109.568 20.8666 109.871 21.3534 110.262 21.7649C110.653 22.1764 111.124 22.5042 111.646 22.7281C112.167 22.952 112.729 23.0675 113.297 23.0675C113.864 23.0675 114.426 22.952 114.947 22.7281C115.469 22.5042 115.94 22.1764 116.331 21.7649C116.722 21.3534 117.025 20.8666 117.222 20.3342C117.419 19.8018 117.505 19.2349 117.476 18.668Z" fill="white"/>
<path d="M125.909 17.421C125.909 11.775 129.209 9.13501 134.049 9.13501C138.889 9.13501 142.149 11.735 142.188 17.458V17.568H136.688V17.421C136.688 15.001 135.588 14.268 134.048 14.268C132.508 14.268 131.408 15.001 131.408 17.421V26.928C131.408 27.1393 131.324 27.342 131.175 27.4919C131.026 27.6418 130.824 27.7267 130.613 27.728H126.704C126.493 27.7267 126.29 27.6418 126.142 27.4919C125.993 27.342 125.909 27.1393 125.909 26.928V17.421Z" fill="white"/>
<path d="M144.425 17.531C144.425 11.702 147.798 9.13098 152.198 9.13098C153.372 9.07847 154.542 9.31549 155.603 9.8212C156.664 10.3269 157.585 11.0858 158.284 12.031C158.98 11.0826 159.9 10.3214 160.962 9.81539C162.024 9.30934 163.195 9.07421 164.37 9.13098C168.77 9.13098 172.143 11.698 172.143 17.531V26.931C172.142 27.1414 172.057 27.3429 171.909 27.4917C171.76 27.6405 171.558 27.7247 171.348 27.726H167.438C167.228 27.7247 167.026 27.6405 166.877 27.4917C166.729 27.3429 166.644 27.1414 166.643 26.931V17.531C166.643 15.112 165.47 14.268 163.82 14.268C162.207 14.268 161.033 15.111 161.033 17.531V26.931C161.032 27.1414 160.948 27.3429 160.799 27.4917C160.65 27.6405 160.448 27.7247 160.238 27.726H156.329C156.118 27.726 155.915 27.6424 155.765 27.4934C155.615 27.3445 155.53 27.1423 155.529 26.931V17.531C155.529 15.112 154.356 14.268 152.743 14.268C151.093 14.268 149.92 15.111 149.92 17.531V26.931C149.919 27.1414 149.835 27.3429 149.686 27.4917C149.537 27.6405 149.335 27.7247 149.125 27.726H145.22C145.01 27.7247 144.808 27.6405 144.659 27.4917C144.51 27.3429 144.426 27.1414 144.425 26.931V17.531Z" fill="white"/>
<path d="M174.508 18.888C174.508 13.059 178.541 9.13501 184.297 9.13501C189.98 9.13501 193.94 12.911 193.94 18.851V25.8C193.94 26.4416 193.685 27.0569 193.232 27.5105C192.778 27.9642 192.163 28.219 191.521 28.219H191.299C190.657 28.219 190.042 27.9642 189.589 27.5105C189.135 27.0569 188.88 26.4416 188.88 25.8V24.718C188.415 25.8033 187.627 26.7194 186.624 27.3424C185.621 27.9653 184.45 28.2651 183.271 28.201C179.238 28.201 174.508 25.194 174.508 18.888ZM188.44 18.668C188.468 18.1019 188.38 17.536 188.183 17.0048C187.985 16.4735 187.682 15.9879 187.291 15.5775C186.9 15.167 186.43 14.8402 185.909 14.6169C185.388 14.3936 184.827 14.2785 184.26 14.2785C183.693 14.2785 183.132 14.3936 182.611 14.6169C182.09 14.8402 181.62 15.167 181.229 15.5775C180.838 15.9879 180.535 16.4735 180.337 17.0048C180.14 17.536 180.052 18.1019 180.08 18.668C180.052 19.2341 180.14 19.8 180.337 20.3312C180.535 20.8625 180.838 21.3481 181.229 21.7586C181.62 22.169 182.09 22.4958 182.611 22.7191C183.132 22.9424 183.693 23.0575 184.26 23.0575C184.827 23.0575 185.388 22.9424 185.909 22.7191C186.43 22.4958 186.9 22.169 187.291 21.7586C187.682 21.3481 187.985 20.8625 188.183 20.3312C188.38 19.8 188.468 19.2341 188.44 18.668Z" fill="white"/>
<path d="M4.9 4.28099L8.412 7.26899C8.53409 7.37746 8.68728 7.44465 8.84977 7.46099C9.01226 7.47732 9.17576 7.44198 9.317 7.35999C13.979 4.45199 23.593 4.85499 22.872 16.653C22.846 17.085 27.936 13.244 28.187 13.629C28.187 13.629 27.244 4.42299 19.109 1.16899C14.666 -0.608008 10.559 -0.349008 5.013 2.97899C4.90375 3.04447 4.8116 3.13494 4.74412 3.24296C4.67663 3.35098 4.63575 3.47347 4.62481 3.60037C4.61388 3.72727 4.63322 3.85495 4.68123 3.97293C4.72924 4.0909 4.80456 4.19579 4.901 4.27899" fill="#D88B31"/>
<path d="M20.537 22.059C20.4149 21.9505 20.2617 21.8833 20.0992 21.867C19.9367 21.8507 19.7732 21.886 19.632 21.968C14.97 24.877 5.35699 24.473 6.07599 12.675C6.10299 12.238 1.00799 16.083 0.761993 15.698C0.761993 15.698 1.70499 24.904 9.83999 28.158C14.284 29.936 18.722 29.398 24.33 26.176L20.537 22.059Z" fill="#D88B31"/>
<path d="M24.517 33.034C24.1493 33.0345 23.7854 32.9604 23.4473 32.816C23.1091 32.6716 22.8039 32.46 22.55 32.194L17.598 27.016C17.0991 26.4945 16.8279 25.7961 16.8439 25.0746C16.8599 24.353 17.1619 23.6674 17.6835 23.1685C18.205 22.6696 18.9034 22.3984 19.625 22.4144C20.3465 22.4305 21.0321 22.7325 21.531 23.254L26.483 28.432C26.8508 28.8173 27.0975 29.302 27.1924 29.8261C27.2873 30.3502 27.2263 30.8906 27.017 31.3804C26.8077 31.8702 26.4592 32.2877 26.0148 32.5813C25.5704 32.8749 25.0496 33.0316 24.517 33.032" fill="#D88B31"/>
<path d="M24.681 23.517L21.711 19.99C21.6064 19.8658 21.542 19.7127 21.5265 19.5511C21.5109 19.3894 21.5449 19.2268 21.624 19.085C22.818 16.914 26.943 7.749 15.449 0.184998C15.449 0.184998 24.649 1.174 27.863 9.325C29.618 13.777 29.339 17.883 25.984 23.413C25.918 23.5218 25.8271 23.6135 25.7188 23.6804C25.6106 23.7473 25.4879 23.7876 25.3611 23.798C25.2342 23.8083 25.1067 23.7884 24.989 23.7399C24.8713 23.6914 24.7668 23.6157 24.684 23.519" fill="#EBBC42"/>
<path d="M4.269 5.81001L7.239 9.33701C7.34364 9.4612 7.40801 9.6143 7.42355 9.77595C7.43909 9.93761 7.40507 10.1002 7.326 10.242C6.132 12.413 2.007 21.523 13.5 29.088C13.5 29.088 4.619 28.662 1.086 20.003C-0.722001 15.573 -0.389001 11.445 2.966 5.91601C3.032 5.80716 3.12287 5.71552 3.23116 5.6486C3.33944 5.58168 3.46206 5.54139 3.58893 5.53104C3.71581 5.5207 3.84332 5.54059 3.96102 5.58908C4.07872 5.63758 4.18324 5.71329 4.266 5.81001" fill="#EBBC42"/>
</svg>
