<svg xmlns="http://www.w3.org/2000/svg" width="34.105" height="34.105" viewBox="0 0 34.105 34.105"><defs><style>.a{fill:#979797;}.b{fill:#fff;}</style></defs><g transform="translate(-622.733 -1701.019)"><ellipse class="a" cx="17.052" cy="17.052" rx="17.052" ry="17.052" transform="translate(622.733 1701.019)"/><g transform="translate(632.291 1710.711)"><path class="b" d="M276.9-1327.521c0,3.657-1.963,6.524-5.892,8.315l-1.3-2.62c2.49-1.134,3.769-2.77,3.769-5.12l-.2-3.208,2,2.74a4.163,4.163,0,0,1-2.485.989,2.923,2.923,0,0,1-3.06-3.088,3.153,3.153,0,0,1,3.22-3.393C275.451-1332.905,276.9-1330.9,276.9-1327.521Zm-8.956,0c0,3.657-1.963,6.524-5.892,8.315l-1.3-2.62c2.49-1.134,3.769-2.77,3.769-5.12l-.2-3.208,2,2.74a4.163,4.163,0,0,1-2.485.989,2.924,2.924,0,0,1-3.06-3.088,3.153,3.153,0,0,1,3.22-3.393C266.494-1332.905,267.944-1330.9,267.944-1327.521Z" transform="translate(-260.754 1332.905)"/></g></g></svg>